HIERARCHY
ROOT SpineBase
{
  OFFSET 0.000000 0.000000 0.000000
  CHANNELS 6 Xposition Yposition Zposition Zrotation Xrotation Yrotation
  JOINT SpineMid
  {
    OFFSET 0.000000 27.161883 0.000000
    CHANNELS 3 Zrotation Xrotation Yrotation
    JOINT SpineShoulder
    {
      OFFSET -0.044796 20.277106 -0.704230
      CHANNELS 3 Zrotation Xrotation Yrotation
      JOINT Neck
      {
        OFFSET -0.052732 6.734024 -0.479235
        CHANNELS 3 Zrotation Xrotation Yrotation
        JOINT Head
        {
          OFFSET -1.325367 12.159363 0.368117
          CHANNELS 3 Zrotation Xrotation Yrotation
          End Site
          {
            OFFSET 0 0 0
          }
        }
      }
      JOINT ShoulderLeft
      {
        OFFSET -12.287175 -3.037395 4.807921
        CHANNELS 3 Zrotation Xrotation Yrotation
        JOINT ElbowLeft
        {
          OFFSET -3.122013 -22.165813 -1.251653
          CHANNELS 3 Zrotation Xrotation Yrotation
          JOINT WristLeft
          {
            OFFSET 0.921385 -16.623998 -9.789232
            CHANNELS 3 Zrotation Xrotation Yrotation
            JOINT HandLeft
            {
              OFFSET 3.715334 -2.471060 -3.018683
              CHANNELS 3 Zrotation Xrotation Yrotation
              JOINT HandTipLeft
              {
                OFFSET 1.725379 -4.003577 -6.414629
                CHANNELS 3 Zrotation Xrotation Yrotation
                End Site
                {
                  OFFSET 0 0 0
                }
              }
              JOINT ThumbLeft
              {
                OFFSET 1.128981 -0.614638 -0.320852
                CHANNELS 3 Zrotation Xrotation Yrotation
                End Site
                {
                  OFFSET 0 0 0
                }
              }
            }
          }
        }
      }
      JOINT ShoulderRight
      {
        OFFSET 11.260309 -3.431326 -6.942183
        CHANNELS 3 Zrotation Xrotation Yrotation
        JOINT ElbowRight
        {
          OFFSET 0.674712 -22.161576 -3.617377
          CHANNELS 3 Zrotation Xrotation Yrotation
          JOINT WristRight
          {
            OFFSET -15.310693 -17.827268 -3.724901
            CHANNELS 3 Zrotation Xrotation Yrotation
            JOINT HandRight
            {
              OFFSET -3.381828 -2.588530 0.799465
              CHANNELS 3 Zrotation Xrotation Yrotation
              JOINT HandTipRight
              {
                OFFSET -4.090926 -3.665071 -1.084280
                CHANNELS 3 Zrotation Xrotation Yrotation
                End Site
                {
                  OFFSET 0 0 0
                }
              }
              JOINT ThumbRight
              {
                OFFSET -0.636499 -0.989997 -4.345814
                CHANNELS 3 Zrotation Xrotation Yrotation
                End Site
                {
                  OFFSET 0 0 0
                }
              }
            }
          }
        }
      }
    }
  }
  JOINT HipLeft
  {
    OFFSET -5.625565 0.055661 -0.982658
    CHANNELS 3 Zrotation Xrotation Yrotation
    JOINT KneeLeft
    {
      OFFSET 0.959491 -29.941786 5.576704
      CHANNELS 3 Zrotation Xrotation Yrotation
      JOINT AnkleLeft
      {
        OFFSET 3.156515 -31.204383 7.000943
        CHANNELS 3 Zrotation Xrotation Yrotation
        JOINT FootLeft
        {
          OFFSET -3.508529 -2.252951 -11.213400
          CHANNELS 3 Zrotation Xrotation Yrotation
          End Site
          {
            OFFSET 0 0 0
          }
        }
      }
    }
  }
  JOINT HipRight
  {
    OFFSET 5.163855 1.346988 -5.166028
    CHANNELS 3 Zrotation Xrotation Yrotation
    JOINT KneeRight
    {
      OFFSET 2.869717 -27.217681 2.189525
      CHANNELS 3 Zrotation Xrotation Yrotation
      JOINT AnkleRight
      {
        OFFSET 2.916152 -34.728029 7.433783
        CHANNELS 3 Zrotation Xrotation Yrotation
        JOINT FootRight
        {
          OFFSET -5.603201 -4.310154 2.179860
          CHANNELS 3 Zrotation Xrotation Yrotation
          End Site
          {
            OFFSET 0 0 0
          }
        }
      }
    }
  }
}
MOTION
Frames: 13
Frame Time: 0.033333
24.528112 67.911553 364.884878 -0.000000 0.000000 21.192751 -0.000000 0.000000 -21.192751 -0.000000 0.000000 0.000000 -0.000000 0.000000 0.000000 0.000000 0.000000 0.000000 -0.000000 0.000000 0.000000 -0.000000 0.000000 0.000000 -0.000000 0.000000 0.000000 -0.000000 0.000000 0.000000 0.000000 0.000000 0.000000 0.000000 0.000000 0.000000 -0.000000 0.000000 0.000000 -0.000000 0.000000 0.000000 -0.000000 0.000000 0.000000 -0.000000 0.000000 0.000000 0.000000 0.000000 0.000000 0.000000 0.000000 0.000000 -0.000000 0.000000 -21.192751 -0.000000 0.000000 0.000000 -0.000000 0.000000 0.000000 0.000000 0.000000 0.000000 -0.000000 0.000000 -21.192751 -0.000000 0.000000 0.000000 -0.000000 0.000000 0.000000 0.000000 0.000000 0.000000
24.239389 67.888801 364.880253 -0.495797 -0.011987 21.012088 0.467128 -0.166583 -21.011461 -0.000000 0.000000 0.000000 -0.000000 0.000000 0.000000 0.000000 0.000000 0.000000 -0.000000 0.000000 0.000000 -0.684478 -0.353578 0.382178 -2.678661 -3.679718 -2.699031 2.532846 3.610477 2.986004 0.000000 0.000000 0.000000 0.000000 0.000000 0.000000 -0.000000 0.000000 0.000000 -0.000000 0.000000 0.000000 4.283200 2.019274 -1.470180 -4.889023 -3.067632 2.519207 0.000000 0.000000 0.000000 0.000000 0.000000 0.000000 0.467128 -0.166583 -21.011461 -0.000000 0.000000 0.000000 0.380007 -2.682856 2.614075 0.000000 0.000000 0.000000 1.052009 -0.842032 -20.987304 -0.788012 0.421110 -0.016113 4.892394 3.002462 -1.671426 0.000000 0.000000 0.000000
23.983285 67.869463 364.877591 -0.926001 -0.019130 20.870354 0.872068 -0.312007 -20.868134 -0.000000 0.000000 0.000000 -0.000000 0.000000 0.000000 0.000000 0.000000 0.000000 -0.160779 -1.026245 0.152234 -1.076024 0.465333 0.561242 -5.271915 -6.586298 -4.687662 4.797429 6.570876 4.947327 0.000000 0.000000 0.000000 0.000000 0.000000 0.000000 -0.000000 0.000000 0.000000 0.796804 -0.157179 -0.030598 6.305339 3.792230 -3.040122 -8.036600 -5.640782 4.628320 0.000000 0.000000 0.000000 0.000000 0.000000 0.000000 1.958649 -0.719943 -20.642065 -1.160589 -0.001400 -0.216297 0.856996 -5.212820 5.112292 0.000000 0.000000 0.000000 1.930335 -1.490853 -20.814652 -1.408161 0.725588 -0.027915 9.096616 5.393377 -3.248157 0.000000 0.000000 0.000000
23.759800 67.853541 364.876892 -1.290998 -0.021441 20.766589 1.214750 -0.437661 -20.762190 -0.000000 0.000000 0.000000 -0.000000 0.000000 0.000000 0.000000 0.000000 0.000000 -0.164613 -1.533735 0.223252 -1.475053 0.925131 0.744844 -7.451819 -8.580398 -5.680355 6.648660 8.520857 5.845812 0.000000 0.000000 0.000000 0.000000 0.000000 0.000000 -0.000000 0.000000 0.000000 0.967761 -0.149115 -0.073440 7.510132 5.073260 -4.626030 -9.500272 -7.656078 6.443705 0.000000 0.000000 0.000000 0.000000 0.000000 0.000000 2.746037 -1.003519 -20.438591 -1.632368 -0.004761 -0.304408 1.357066 -7.361099 7.265586 0.000000 0.000000 0.000000 2.652991 -1.974437 -20.677878 -2.680094 1.295684 -0.162280 13.280488 6.868924 -4.380406 0.000000 0.000000 0.000000
23.568933 67.841033 364.878154 -1.591120 -0.018931 20.700020 1.495139 -0.544656 -20.693176 -1.004112 -0.149529 -0.073940 1.753204 0.469777 0.079215 0.000000 0.000000 0.000000 0.891369 -1.886782 0.363354 -1.763520 1.551938 0.850156 -8.983006 -9.627245 -5.482239 7.972288 9.240811 5.726437 0.000000 0.000000 0.000000 0.000000 0.000000 0.000000 1.003922 0.150801 0.071309 0.987325 -0.083271 -0.135087 7.422166 6.050415 -6.193044 -9.304121 -9.058406 8.059587 0.000000 0.000000 0.000000 0.000000 0.000000 0.000000 3.407059 -1.240796 -20.283883 -2.034456 -0.010349 -0.379684 1.774250 -8.905713 8.827695 0.000000 0.000000 0.000000 3.232238 -2.310467 -20.578771 -3.096423 1.471217 -0.178079 15.925542 8.089408 -5.380218 0.000000 0.000000 0.000000
23.410686 67.831941 364.881379 -1.826633 -0.011603 20.670053 0.926465 -0.274805 -20.696838 -0.340002 -0.192942 -0.059021 2.073244 0.441068 0.087554 0.000000 0.000000 0.000000 1.196153 -2.401070 0.443567 -1.933763 2.349690 0.868327 -9.759676 -9.738875 -4.024419 8.652957 8.653019 4.689408 0.000000 0.000000 0.000000 0.000000 0.000000 0.000000 1.202701 0.136292 0.085232 0.855716 0.040559 -0.215301 5.991758 6.793402 -7.731807 -7.421547 -9.770211 9.542288 0.000000 0.000000 0.000000 0.000000 0.000000 0.000000 3.942544 -1.434301 -20.178500 -2.368254 -0.018460 -0.442404 2.003473 -9.676188 9.590713 0.000000 0.000000 0.000000 3.676032 -2.508378 -20.518374 -3.290141 1.524776 -0.179282 17.649531 8.870140 -6.055108 0.000000 0.000000 0.000000
23.203192 67.819006 364.883280 -2.110744 0.018497 20.721113 1.017772 -0.267736 -20.752881 -0.382948 -0.191314 -0.069658 2.405815 0.233224 0.089232 0.000000 0.000000 0.000000 1.925606 -2.815310 0.494166 -2.291325 2.821307 0.800387 -10.283824 -8.724107 -0.824467 8.962385 6.004517 2.167489 0.000000 0.000000 0.000000 0.000000 0.000000 0.000000 1.447026 0.065531 0.102664 1.704268 -0.182147 -0.199595 1.122369 9.085486 -11.411187 -3.726754 -10.237140 12.109646 0.000000 0.000000 0.000000 0.000000 0.000000 0.000000 4.602120 -1.665299 -20.131032 -2.782998 -0.061673 -0.522265 2.140470 -10.121424 10.043223 0.000000 0.000000 0.000000 4.158350 -2.025037 -20.496904 -2.493074 0.412970 -0.148442 17.121029 6.303805 -0.552671 0.000000 0.000000 0.000000
23.067708 67.802759 364.887658 -2.278315 0.050991 20.908254 1.036549 -0.237627 -20.943799 -0.395393 -0.176909 -0.076257 2.621244 0.006367 0.087848 0.000000 0.000000 0.000000 2.115727 -3.154741 0.544409 -2.109890 3.446245 0.675317 -12.941767 -10.266761 0.402872 12.149558 7.864715 -0.127947 0.000000 0.000000 0.000000 0.000000 0.000000 0.000000 1.620768 -0.019000 0.115457 1.155215 0.108220 -0.338279 -0.092923 9.040627 -11.791162 2.888553 -12.174918 15.918719 0.000000 0.000000 0.000000 0.000000 0.000000 0.000000 4.998790 -1.848829 -20.251859 -3.051231 -0.074320 -0.573207 1.971744 -9.605587 9.607696 0.000000 0.000000 0.000000 4.291678 -1.886632 -20.665334 -2.402684 0.189229 -0.169790 16.090053 6.378237 -1.283178 0.000000 0.000000 0.000000
23.119786 67.819778 364.868563 -2.124852 0.120340 21.053292 0.850047 -0.150384 -21.089740 -0.387847 -0.137636 -0.076616 2.625076 -0.216904 0.085413 0.000000 0.000000 0.000000 2.333428 -3.861471 0.630835 -1.517328 5.764295 0.243311 -12.117451 -9.954374 2.464392 9.404933 4.583288 0.180366 0.000000 0.000000 0.000000 0.000000 0.000000 0.000000 1.665760 -0.144557 0.119499 -0.000000 0.000000 0.000000 -6.127338 8.552645 -12.020849 11.148181 -6.979418 13.189712 0.000000 0.000000 0.000000 0.000000 0.000000 0.000000 4.700799 -1.896833 -20.420504 -2.942932 -0.007677 -0.549130 1.571952 -8.169305 8.060316 0.000000 0.000000 0.000000 4.220783 -2.126897 -20.806563 -2.576103 0.358329 -0.161856 17.346335 13.032385 -13.608498 0.000000 0.000000 0.000000
23.232764 67.845826 364.849855 -1.905852 0.173219 21.021649 0.641285 -0.061767 -21.058492 -0.432749 -0.132308 -0.080035 2.763205 -0.271506 0.089613 0.000000 0.000000 0.000000 2.381714 -4.810907 0.766513 -0.536284 8.471334 -0.402678 -12.855962 -6.893451 12.038335 8.054374 -1.928729 -7.440868 0.000000 0.000000 0.000000 0.000000 0.000000 0.000000 1.718368 -0.209958 0.123773 -2.717920 1.668715 -0.806759 -8.952818 7.667516 -12.937511 16.310364 -4.353977 13.185951 0.000000 0.000000 0.000000 0.000000 0.000000 0.000000 4.299565 -1.901074 -20.427140 -2.787997 0.086691 -0.514954 1.059935 -5.981704 5.651165 0.000000 0.000000 0.000000 3.796953 -2.535686 -20.828148 -2.544890 0.838969 -0.097950 18.841026 18.762678 -25.455551 0.000000 0.000000 0.000000
23.377073 67.899735 364.915061 -1.648336 0.055888 20.937321 0.442858 0.136828 -20.976585 -0.465945 -0.204596 -0.084155 2.990483 0.017715 0.105464 0.000000 0.000000 0.000000 2.106223 -5.431962 0.872500 -0.010344 9.002396 -0.674071 -9.080595 4.515079 23.583384 0.527149 -10.415866 -17.504992 0.000000 0.000000 0.000000 0.000000 0.000000 0.000000 3.319077 -0.659295 -0.135749 -8.642849 3.883273 -0.825093 -10.217933 8.171788 -15.586499 23.819960 -3.708515 16.928668 0.000000 0.000000 0.000000 0.000000 0.000000 0.000000 3.868705 -1.558305 -20.414191 -2.521075 0.039205 -0.467868 0.551401 -3.339608 2.918699 0.000000 0.000000 0.000000 3.564342 -2.175391 -20.754624 -3.267457 0.950194 -0.250059 20.663897 22.058643 -33.058007 0.000000 0.000000 0.000000
23.556496 67.966308 365.037155 -1.347613 -0.210448 20.579803 0.259098 0.417201 -20.620612 -0.471944 -0.402485 -0.088014 3.309116 0.663917 0.119934 0.000000 0.000000 0.000000 0.707234 -6.684752 1.085080 2.736943 12.524556 -1.869524 -8.418805 11.029331 31.226061 -4.390872 -13.918111 -24.770722 0.000000 0.000000 0.000000 0.000000 0.000000 0.000000 4.907233 -1.046288 -0.408961 -17.057672 6.967098 -0.518511 -3.392771 7.934930 -17.423464 25.892272 -4.283399 19.605862 0.000000 0.000000 0.000000 0.000000 0.000000 0.000000 3.375748 -0.951661 -20.154699 -2.147660 -0.069739 -0.403789 -0.000000 0.000000 0.000000 0.000000 0.000000 0.000000 3.368922 -1.483696 -20.404750 -3.371131 0.605589 -0.333812 20.086105 23.892351 -36.947604 0.000000 0.000000 0.000000
23.717838 68.017006 365.234225 -1.087662 -0.607632 20.032660 0.123463 0.697960 -20.073755 -0.483827 -0.631098 -0.092698 3.756398 1.423896 0.114328 0.000000 0.000000 0.000000 -2.357396 -9.893058 1.488468 9.078142 17.562086 -5.219999 -7.311552 22.514573 38.906473 -10.013542 -13.914760 -30.868393 0.000000 0.000000 0.000000 0.000000 0.000000 0.000000 6.752529 -1.268204 -0.733487 -26.191548 9.671232 0.468400 -3.390095 9.823154 -21.634415 30.458342 -3.592361 25.122572 0.000000 0.000000 0.000000 0.000000 0.000000 0.000000 3.006089 -0.162312 -19.698676 -1.793670 -0.259241 -0.346493 0.485349 -2.854687 2.349523 0.000000 0.000000 0.000000 3.335246 -0.978893 -19.875562 -3.905636 0.549880 -0.444040 21.715088 24.126925 -37.474096 0.000000 0.000000 0.000000
